<mxfile host="65bd71144e">
    <diagram id="F7KA2f3Z6EinoK9pLqXq" name="Page-1">
        <mxGraphModel dx="1996" dy="746" grid="1" gridSize="10" guides="1" tooltips="1" connect="1" arrows="1" fold="1" page="1" pageScale="1" pageWidth="850" pageHeight="1100" math="0" shadow="0">
            <root>
                <mxCell id="0"/>
                <mxCell id="1" parent="0"/>
                <mxCell id="2" value="minitalk&lt;br&gt;" style="swimlane;whiteSpace=wrap;html=1;" parent="1" vertex="1">
                    <mxGeometry width="850" height="1100" as="geometry"/>
                </mxCell>
                <mxCell id="3" value="Client" style="swimlane;whiteSpace=wrap;html=1;" parent="2" vertex="1">
                    <mxGeometry x="10" y="30" width="410" height="1060" as="geometry"/>
                </mxCell>
                <mxCell id="38" value="Hear" style="swimlane;whiteSpace=wrap;html=1;" parent="3" vertex="1">
                    <mxGeometry x="10" y="30" width="390" height="200" as="geometry"/>
                </mxCell>
                <mxCell id="51" value="" style="edgeStyle=none;html=1;" parent="38" source="49" target="50" edge="1">
                    <mxGeometry relative="1" as="geometry"/>
                </mxCell>
                <mxCell id="49" value="read argv" style="rounded=0;whiteSpace=wrap;html=1;" parent="38" vertex="1">
                    <mxGeometry x="10" y="30" width="120" height="60" as="geometry"/>
                </mxCell>
                <mxCell id="50" value="set serveur PID" style="whiteSpace=wrap;html=1;rounded=0;" parent="38" vertex="1">
                    <mxGeometry x="210" y="30" width="120" height="60" as="geometry"/>
                </mxCell>
                <mxCell id="39" value="translator" style="swimlane;whiteSpace=wrap;html=1;" parent="3" vertex="1">
                    <mxGeometry x="10" y="270" width="390" height="200" as="geometry"/>
                </mxCell>
                <mxCell id="53" value="turn message into bit" style="rounded=0;whiteSpace=wrap;html=1;" parent="39" vertex="1">
                    <mxGeometry x="10" y="30" width="120" height="60" as="geometry"/>
                </mxCell>
                <mxCell id="5" value="talker" style="swimlane;whiteSpace=wrap;html=1;" parent="3" vertex="1">
                    <mxGeometry x="10" y="510" width="390" height="200" as="geometry"/>
                </mxCell>
                <mxCell id="58" value="" style="edgeStyle=none;html=1;" parent="5" source="56" target="57" edge="1">
                    <mxGeometry relative="1" as="geometry"/>
                </mxCell>
                <mxCell id="56" value="SIFUSER1 = 0&lt;br&gt;SIGUSER2 = 1" style="rounded=0;whiteSpace=wrap;html=1;" parent="5" vertex="1">
                    <mxGeometry x="10" y="30" width="120" height="60" as="geometry"/>
                </mxCell>
                <mxCell id="59" style="edgeStyle=none;html=1;entryX=0.5;entryY=1;entryDx=0;entryDy=0;" parent="5" source="57" target="5" edge="1">
                    <mxGeometry relative="1" as="geometry"/>
                </mxCell>
                <mxCell id="57" value="kill(pid, bit)" style="whiteSpace=wrap;html=1;rounded=0;" parent="5" vertex="1">
                    <mxGeometry x="210" y="30" width="120" height="60" as="geometry"/>
                </mxCell>
                <mxCell id="52" style="edgeStyle=none;html=1;entryX=0.25;entryY=0;entryDx=0;entryDy=0;" parent="3" source="49" target="39" edge="1">
                    <mxGeometry relative="1" as="geometry"/>
                </mxCell>
                <mxCell id="54" style="edgeStyle=none;html=1;entryX=0.25;entryY=0;entryDx=0;entryDy=0;" parent="3" source="53" target="5" edge="1">
                    <mxGeometry relative="1" as="geometry"/>
                </mxCell>
                <mxCell id="55" style="edgeStyle=none;html=1;entryX=0.75;entryY=0;entryDx=0;entryDy=0;" parent="3" source="50" target="5" edge="1">
                    <mxGeometry relative="1" as="geometry"/>
                </mxCell>
                <mxCell id="4" value="serveur" style="swimlane;whiteSpace=wrap;html=1;" parent="2" vertex="1">
                    <mxGeometry x="430" y="30" width="410" height="1060" as="geometry"/>
                </mxCell>
                <mxCell id="6" value="Hear" style="swimlane;whiteSpace=wrap;html=1;" parent="4" vertex="1">
                    <mxGeometry x="10" y="30" width="390" height="200" as="geometry"/>
                </mxCell>
                <mxCell id="63" value="" style="edgeStyle=none;html=1;" parent="6" source="61" target="62" edge="1">
                    <mxGeometry relative="1" as="geometry"/>
                </mxCell>
                <mxCell id="61" value="geting sig (only handle SIGUSR1 and 2)" style="rounded=0;whiteSpace=wrap;html=1;" parent="6" vertex="1">
                    <mxGeometry x="260" y="30" width="120" height="60" as="geometry"/>
                </mxCell>
                <mxCell id="62" value="if bonus : get client PID" style="whiteSpace=wrap;html=1;rounded=0;" parent="6" vertex="1">
                    <mxGeometry x="60" y="30" width="120" height="60" as="geometry"/>
                </mxCell>
                <mxCell id="40" value="Translator" style="swimlane;whiteSpace=wrap;html=1;startSize=23;" parent="4" vertex="1">
                    <mxGeometry x="10" y="270" width="390" height="200" as="geometry"/>
                </mxCell>
                <mxCell id="67" value="" style="edgeStyle=none;html=1;" parent="40" source="65" target="66" edge="1">
                    <mxGeometry relative="1" as="geometry"/>
                </mxCell>
                <mxCell id="65" value="turn bits in char" style="rounded=0;whiteSpace=wrap;html=1;" parent="40" vertex="1">
                    <mxGeometry x="260" y="30" width="120" height="60" as="geometry"/>
                </mxCell>
                <mxCell id="66" value="char int str" style="whiteSpace=wrap;html=1;rounded=0;" parent="40" vertex="1">
                    <mxGeometry x="60" y="30" width="120" height="60" as="geometry"/>
                </mxCell>
                <mxCell id="41" value="talker" style="swimlane;whiteSpace=wrap;html=1;" parent="4" vertex="1">
                    <mxGeometry x="10" y="510" width="390" height="200" as="geometry"/>
                </mxCell>
                <mxCell id="69" value="printf(message)" style="whiteSpace=wrap;html=1;" parent="41" vertex="1">
                    <mxGeometry x="260" y="30" width="120" height="60" as="geometry"/>
                </mxCell>
                <mxCell id="70" value="if bonus : signal message to client" style="whiteSpace=wrap;html=1;" parent="41" vertex="1">
                    <mxGeometry x="10" y="30" width="120" height="60" as="geometry"/>
                </mxCell>
                <mxCell id="64" style="edgeStyle=none;html=1;entryX=0.75;entryY=0;entryDx=0;entryDy=0;" parent="4" source="61" target="40" edge="1">
                    <mxGeometry relative="1" as="geometry"/>
                </mxCell>
                <mxCell id="68" style="edgeStyle=none;html=1;entryX=0.75;entryY=0;entryDx=0;entryDy=0;" parent="4" source="66" target="41" edge="1">
                    <mxGeometry relative="1" as="geometry"/>
                </mxCell>
                <mxCell id="71" style="edgeStyle=none;html=1;entryX=0.5;entryY=0;entryDx=0;entryDy=0;" parent="4" source="62" target="70" edge="1">
                    <mxGeometry relative="1" as="geometry">
                        <Array as="points">
                            <mxPoint x="50" y="320"/>
                        </Array>
                    </mxGeometry>
                </mxCell>
                <mxCell id="60" style="edgeStyle=none;html=1;exitX=0.5;exitY=1;exitDx=0;exitDy=0;entryX=1;entryY=0.25;entryDx=0;entryDy=0;" parent="2" source="5" target="6" edge="1">
                    <mxGeometry relative="1" as="geometry">
                        <Array as="points">
                            <mxPoint x="220" y="800"/>
                            <mxPoint x="920" y="800"/>
                            <mxPoint x="920" y="110"/>
                        </Array>
                    </mxGeometry>
                </mxCell>
                <mxCell id="9" value="" style="edgeStyle=none;html=1;" parent="1" source="7" target="8" edge="1">
                    <mxGeometry relative="1" as="geometry"/>
                </mxCell>
                <mxCell id="7" value="start serveur" style="rounded=0;whiteSpace=wrap;html=1;" parent="1" vertex="1">
                    <mxGeometry y="1120" width="120" height="60" as="geometry"/>
                </mxCell>
                <mxCell id="11" value="" style="edgeStyle=none;html=1;" parent="1" source="8" target="10" edge="1">
                    <mxGeometry relative="1" as="geometry"/>
                </mxCell>
                <mxCell id="8" value="start client" style="whiteSpace=wrap;html=1;rounded=0;" parent="1" vertex="1">
                    <mxGeometry x="200" y="1120" width="120" height="60" as="geometry"/>
                </mxCell>
                <mxCell id="13" value="" style="edgeStyle=none;html=1;exitX=1;exitY=0.5;exitDx=0;exitDy=0;" parent="1" source="10" target="12" edge="1">
                    <mxGeometry relative="1" as="geometry">
                        <Array as="points">
                            <mxPoint x="620" y="1150"/>
                        </Array>
                    </mxGeometry>
                </mxCell>
                <mxCell id="15" value="" style="edgeStyle=none;html=1;" parent="1" source="10" target="14" edge="1">
                    <mxGeometry relative="1" as="geometry"/>
                </mxCell>
                <mxCell id="10" value="give serveur PID to client&lt;br&gt;" style="whiteSpace=wrap;html=1;rounded=0;" parent="1" vertex="1">
                    <mxGeometry x="400" y="1120" width="120" height="60" as="geometry"/>
                </mxCell>
                <mxCell id="19" value="" style="edgeStyle=none;html=1;" parent="1" source="12" target="18" edge="1">
                    <mxGeometry relative="1" as="geometry"/>
                </mxCell>
                <mxCell id="12" value="client way" style="whiteSpace=wrap;html=1;rounded=0;" parent="1" vertex="1">
                    <mxGeometry x="560" y="1260" width="120" height="60" as="geometry"/>
                </mxCell>
                <mxCell id="17" value="" style="edgeStyle=none;html=1;" parent="1" source="14" target="16" edge="1">
                    <mxGeometry relative="1" as="geometry"/>
                </mxCell>
                <mxCell id="14" value="serveur way" style="whiteSpace=wrap;html=1;rounded=0;" parent="1" vertex="1">
                    <mxGeometry x="400" y="1260" width="120" height="60" as="geometry"/>
                </mxCell>
                <mxCell id="31" style="edgeStyle=none;html=1;entryX=0.5;entryY=0;entryDx=0;entryDy=0;" parent="1" source="16" target="29" edge="1">
                    <mxGeometry relative="1" as="geometry"/>
                </mxCell>
                <mxCell id="16" value="wait utile client signal" style="whiteSpace=wrap;html=1;rounded=0;" parent="1" vertex="1">
                    <mxGeometry x="400" y="1400" width="120" height="60" as="geometry"/>
                </mxCell>
                <mxCell id="26" value="" style="edgeStyle=none;html=1;" parent="1" source="18" target="25" edge="1">
                    <mxGeometry relative="1" as="geometry"/>
                </mxCell>
                <mxCell id="18" value="wait user output" style="whiteSpace=wrap;html=1;rounded=0;" parent="1" vertex="1">
                    <mxGeometry x="560" y="1400" width="120" height="60" as="geometry"/>
                </mxCell>
                <mxCell id="28" value="" style="edgeStyle=none;html=1;" parent="1" source="25" target="27" edge="1">
                    <mxGeometry relative="1" as="geometry"/>
                </mxCell>
                <mxCell id="25" value="translate message in bit" style="whiteSpace=wrap;html=1;rounded=0;" parent="1" vertex="1">
                    <mxGeometry x="560" y="1540" width="120" height="60" as="geometry"/>
                </mxCell>
                <mxCell id="30" value="" style="edgeStyle=none;html=1;" parent="1" source="27" target="29" edge="1">
                    <mxGeometry relative="1" as="geometry"/>
                </mxCell>
                <mxCell id="37" style="edgeStyle=none;html=1;entryX=1;entryY=0.5;entryDx=0;entryDy=0;" parent="1" source="27" target="18" edge="1">
                    <mxGeometry relative="1" as="geometry">
                        <Array as="points">
                            <mxPoint x="620" y="1800"/>
                            <mxPoint x="720" y="1800"/>
                            <mxPoint x="720" y="1430"/>
                        </Array>
                    </mxGeometry>
                </mxCell>
                <mxCell id="27" value="send message" style="whiteSpace=wrap;html=1;rounded=0;" parent="1" vertex="1">
                    <mxGeometry x="560" y="1680" width="120" height="60" as="geometry"/>
                </mxCell>
                <mxCell id="33" value="" style="edgeStyle=none;html=1;" parent="1" source="29" target="32" edge="1">
                    <mxGeometry relative="1" as="geometry"/>
                </mxCell>
                <mxCell id="29" value="get message" style="whiteSpace=wrap;html=1;rounded=0;" parent="1" vertex="1">
                    <mxGeometry x="400" y="1680" width="120" height="60" as="geometry"/>
                </mxCell>
                <mxCell id="35" value="" style="edgeStyle=none;html=1;" parent="1" source="32" target="34" edge="1">
                    <mxGeometry relative="1" as="geometry"/>
                </mxCell>
                <mxCell id="32" value="translate message" style="whiteSpace=wrap;html=1;rounded=0;" parent="1" vertex="1">
                    <mxGeometry x="400" y="1820" width="120" height="60" as="geometry"/>
                </mxCell>
                <mxCell id="36" style="edgeStyle=none;html=1;entryX=0;entryY=0.5;entryDx=0;entryDy=0;" parent="1" source="34" target="16" edge="1">
                    <mxGeometry relative="1" as="geometry">
                        <mxPoint x="300" y="1990" as="targetPoint"/>
                        <Array as="points">
                            <mxPoint x="310" y="1990"/>
                            <mxPoint x="310" y="1430"/>
                        </Array>
                    </mxGeometry>
                </mxCell>
                <mxCell id="34" value="show message" style="whiteSpace=wrap;html=1;rounded=0;" parent="1" vertex="1">
                    <mxGeometry x="400" y="1960" width="120" height="60" as="geometry"/>
                </mxCell>
                <mxCell id="42" value="t_client" style="swimlane;fontStyle=0;childLayout=stackLayout;horizontal=1;startSize=30;horizontalStack=0;resizeParent=1;resizeParentMax=0;resizeLast=0;collapsible=1;marginBottom=0;whiteSpace=wrap;html=1;" parent="1" vertex="1">
                    <mxGeometry x="10" y="1200" width="140" height="90" as="geometry"/>
                </mxCell>
                <mxCell id="43" value="int serv_PID" style="text;strokeColor=none;fillColor=none;align=left;verticalAlign=middle;spacingLeft=4;spacingRight=4;overflow=hidden;points=[[0,0.5],[1,0.5]];portConstraint=eastwest;rotatable=0;whiteSpace=wrap;html=1;" parent="42" vertex="1">
                    <mxGeometry y="30" width="140" height="30" as="geometry"/>
                </mxCell>
                <mxCell id="44" value="..." style="text;strokeColor=none;fillColor=none;align=left;verticalAlign=middle;spacingLeft=4;spacingRight=4;overflow=hidden;points=[[0,0.5],[1,0.5]];portConstraint=eastwest;rotatable=0;whiteSpace=wrap;html=1;" parent="42" vertex="1">
                    <mxGeometry y="60" width="140" height="30" as="geometry"/>
                </mxCell>
                <mxCell id="46" value="t_client" style="swimlane;fontStyle=0;childLayout=stackLayout;horizontal=1;startSize=30;horizontalStack=0;resizeParent=1;resizeParentMax=0;resizeLast=0;collapsible=1;marginBottom=0;whiteSpace=wrap;html=1;" parent="1" vertex="1">
                    <mxGeometry x="10" y="1300" width="140" height="90" as="geometry"/>
                </mxCell>
                <mxCell id="47" value="func signal_handler" style="text;strokeColor=none;fillColor=none;align=left;verticalAlign=middle;spacingLeft=4;spacingRight=4;overflow=hidden;points=[[0,0.5],[1,0.5]];portConstraint=eastwest;rotatable=0;whiteSpace=wrap;html=1;" parent="46" vertex="1">
                    <mxGeometry y="30" width="140" height="30" as="geometry"/>
                </mxCell>
                <mxCell id="48" value="..." style="text;strokeColor=none;fillColor=none;align=left;verticalAlign=middle;spacingLeft=4;spacingRight=4;overflow=hidden;points=[[0,0.5],[1,0.5]];portConstraint=eastwest;rotatable=0;whiteSpace=wrap;html=1;" parent="46" vertex="1">
                    <mxGeometry y="60" width="140" height="30" as="geometry"/>
                </mxCell>
            </root>
        </mxGraphModel>
    </diagram>
</mxfile>